<?xml version="1.0" encoding="utf-8"?>
<svg width="28px" height="20px" viewBox="0 0 28 20" version="1.1" xmlns:xlink="http://www.w3.org/1999/xlink" xmlns="http://www.w3.org/2000/svg">
  <defs>
    <path d="M1.999 0L26.001 0Q26.0992 0 26.1969 0.00962573Q26.2947 0.0192515 26.391 0.0384102Q26.4873 0.057569 26.5813 0.0860763Q26.6753 0.114584 26.766 0.152165Q26.8567 0.189746 26.9433 0.236039Q27.0299 0.282333 27.1116 0.336892Q27.1932 0.391452 27.2692 0.453752Q27.3451 0.516052 27.4145 0.585494Q27.4839 0.654935 27.5462 0.730848Q27.6085 0.806761 27.6631 0.888415Q27.7177 0.970069 27.764 1.05668Q27.8103 1.14329 27.8478 1.23402Q27.8854 1.32474 27.9139 1.41872Q27.9424 1.5127 27.9616 1.60901Q27.9807 1.70533 27.9904 1.80306Q28 1.9008 28 1.999L28 18.001Q28 18.0992 27.9904 18.1969Q27.9807 18.2947 27.9616 18.391Q27.9424 18.4873 27.9139 18.5813Q27.8854 18.6753 27.8478 18.766Q27.8103 18.8567 27.764 18.9433Q27.7177 19.0299 27.6631 19.1116Q27.6085 19.1932 27.5462 19.2692Q27.4839 19.3451 27.4145 19.4145Q27.3451 19.4839 27.2691 19.5462Q27.1932 19.6085 27.1116 19.6631Q27.0299 19.7177 26.9433 19.764Q26.8567 19.8103 26.766 19.8478Q26.6753 19.8854 26.5813 19.9139Q26.4873 19.9424 26.391 19.9616Q26.2947 19.9807 26.1969 19.9904Q26.0992 20 26.001 20L1.999 20Q1.9008 20 1.80306 19.9904Q1.70533 19.9807 1.60901 19.9616Q1.5127 19.9424 1.41872 19.9139Q1.32474 19.8854 1.23402 19.8478Q1.14329 19.8103 1.05668 19.764Q0.970069 19.7177 0.888415 19.6631Q0.806761 19.6085 0.730848 19.5462Q0.654935 19.4839 0.585494 19.4145Q0.516052 19.3451 0.453752 19.2692Q0.391452 19.1932 0.336892 19.1116Q0.282333 19.0299 0.236039 18.9433Q0.189746 18.8567 0.152165 18.766Q0.114584 18.6753 0.0860763 18.5813Q0.057569 18.4873 0.0384102 18.391Q0.0192515 18.2947 0.00962573 18.1969Q0 18.0992 0 18.001L0 1.999Q0 1.9008 0.00962573 1.80306Q0.0192515 1.70533 0.0384102 1.60901Q0.057569 1.5127 0.0860763 1.41872Q0.114584 1.32474 0.152165 1.23402Q0.189746 1.14329 0.236039 1.05668Q0.282333 0.970069 0.336892 0.888415Q0.391452 0.806761 0.453752 0.730848Q0.516052 0.654935 0.585494 0.585494Q0.654935 0.516052 0.730848 0.453752Q0.806761 0.391452 0.888415 0.336892Q0.970069 0.282333 1.05668 0.236039Q1.14329 0.189746 1.23402 0.152165Q1.32474 0.114584 1.41872 0.0860763Q1.5127 0.057569 1.60901 0.0384102Q1.70533 0.0192515 1.80306 0.00962573Q1.9008 0 1.999 0L1.999 0Z" id="path_1" />
    <clipPath id="mask_1">
      <use xlink:href="#path_1" />
    </clipPath>
  </defs>
  <g id="MC">
    <g id="Mask">
      <use stroke="none" fill="#FFFFFF" xlink:href="#path_1" fill-rule="evenodd" />
      <g clip-path="url(#mask_1)">
        <use xlink:href="#path_1" fill="none" stroke="#F5F5F5" stroke-width="1" />
      </g>
    </g>
    <g clip-path="url(#mask_1)">
      <path d="M0 10.6667L28 10.6667L28 0L0 0L0 10.6667Z" id="Rectangle-2" fill="#EA233B" fill-rule="evenodd" stroke="none" />
    </g>
  </g>
</svg>