<?xml version="1.0" encoding="utf-8"?>
<svg width="28px" height="20px" viewBox="0 0 28 20" version="1.1" xmlns:xlink="http://www.w3.org/1999/xlink" xmlns="http://www.w3.org/2000/svg">
  <defs>
    <linearGradient gradientUnits="userSpaceOnUse" x1="4.6666665" y1="0" x2="4.6666665" y2="6.6666665" id="gradient_1">
      <stop offset="0%" stop-color="#FFFFFF" />
      <stop offset="100%" stop-color="#F0F0F0" />
    </linearGradient>
    <filter filterUnits="userSpaceOnUse" color-interpolation-filters="sRGB" id="filter_1">
      <feFlood flood-opacity="0" result="BackgroundImageFix" />
      <feColorMatrix in="SourceAlpha" type="matrix" values="0 0 0 0 0 0 0 0 0 0 0 0 0 0 0 0 0 0 127 0" />
      <feOffset dx="0" dy="1" />
      <feGaussianBlur stdDeviation="0" />
      <feColorMatrix type="matrix" values="0 0 0 0 0 0 0 0 0 0 0 0 0 0 0 0 0 0 0.05882353 0" />
      <feBlend mode="normal" in2="BackgroundImageFix" result="effect0_dropShadow" />
      <feBlend mode="normal" in="SourceGraphic" in2="effect0_dropShadow" result="shape" />
    </filter>
    <path d="M1.999 0L26.001 0Q26.0992 0 26.1969 0.00962573Q26.2947 0.0192515 26.391 0.0384102Q26.4873 0.057569 26.5813 0.0860763Q26.6753 0.114584 26.766 0.152165Q26.8567 0.189746 26.9433 0.236039Q27.0299 0.282333 27.1116 0.336892Q27.1932 0.391452 27.2692 0.453752Q27.3451 0.516052 27.4145 0.585494Q27.4839 0.654935 27.5462 0.730848Q27.6085 0.806761 27.6631 0.888415Q27.7177 0.970069 27.764 1.05668Q27.8103 1.14329 27.8478 1.23402Q27.8854 1.32474 27.9139 1.41872Q27.9424 1.5127 27.9616 1.60901Q27.9807 1.70533 27.9904 1.80306Q28 1.9008 28 1.999L28 18.001Q28 18.0992 27.9904 18.1969Q27.9807 18.2947 27.9616 18.391Q27.9424 18.4873 27.9139 18.5813Q27.8854 18.6753 27.8478 18.766Q27.8103 18.8567 27.764 18.9433Q27.7177 19.0299 27.6631 19.1116Q27.6085 19.1932 27.5462 19.2692Q27.4839 19.3451 27.4145 19.4145Q27.3451 19.4839 27.2691 19.5462Q27.1932 19.6085 27.1116 19.6631Q27.0299 19.7177 26.9433 19.764Q26.8567 19.8103 26.766 19.8478Q26.6753 19.8854 26.5813 19.9139Q26.4873 19.9424 26.391 19.9616Q26.2947 19.9807 26.1969 19.9904Q26.0992 20 26.001 20L1.999 20Q1.9008 20 1.80306 19.9904Q1.70533 19.9807 1.60901 19.9616Q1.5127 19.9424 1.41872 19.9139Q1.32474 19.8854 1.23402 19.8478Q1.14329 19.8103 1.05668 19.764Q0.970069 19.7177 0.888415 19.6631Q0.806761 19.6085 0.730848 19.5462Q0.654935 19.4839 0.585494 19.4145Q0.516052 19.3451 0.453752 19.2692Q0.391452 19.1932 0.336892 19.1116Q0.282333 19.0299 0.236039 18.9433Q0.189746 18.8567 0.152165 18.766Q0.114584 18.6753 0.0860763 18.5813Q0.057569 18.4873 0.0384102 18.391Q0.0192515 18.2947 0.00962573 18.1969Q0 18.0992 0 18.001L0 1.999Q0 1.9008 0.00962573 1.80306Q0.0192515 1.70533 0.0384102 1.60901Q0.057569 1.5127 0.0860763 1.41872Q0.114584 1.32474 0.152165 1.23402Q0.189746 1.14329 0.236039 1.05668Q0.282333 0.970069 0.336892 0.888415Q0.391452 0.806761 0.453752 0.730848Q0.516052 0.654935 0.585494 0.585494Q0.654935 0.516052 0.730848 0.453752Q0.806761 0.391452 0.888415 0.336892Q0.970069 0.282333 1.05668 0.236039Q1.14329 0.189746 1.23402 0.152165Q1.32474 0.114584 1.41872 0.0860763Q1.5127 0.057569 1.60901 0.0384102Q1.70533 0.0192515 1.80306 0.00962573Q1.9008 0 1.999 0L1.999 0Z" id="path_1" />
    <clipPath id="mask_1">
      <use xlink:href="#path_1" />
    </clipPath>
  </defs>
  <g id="US">
    <path d="M1.999 0L26.001 0Q26.0992 0 26.1969 0.00962573Q26.2947 0.0192515 26.391 0.0384102Q26.4873 0.057569 26.5813 0.0860763Q26.6753 0.114584 26.766 0.152165Q26.8567 0.189746 26.9433 0.236039Q27.0299 0.282333 27.1116 0.336892Q27.1932 0.391452 27.2692 0.453752Q27.3451 0.516052 27.4145 0.585494Q27.4839 0.654935 27.5462 0.730848Q27.6085 0.806761 27.6631 0.888415Q27.7177 0.970069 27.764 1.05668Q27.8103 1.14329 27.8478 1.23402Q27.8854 1.32474 27.9139 1.41872Q27.9424 1.5127 27.9616 1.60901Q27.9807 1.70533 27.9904 1.80306Q28 1.9008 28 1.999L28 18.001Q28 18.0992 27.9904 18.1969Q27.9807 18.2947 27.9616 18.391Q27.9424 18.4873 27.9139 18.5813Q27.8854 18.6753 27.8478 18.766Q27.8103 18.8567 27.764 18.9433Q27.7177 19.0299 27.6631 19.1116Q27.6085 19.1932 27.5462 19.2692Q27.4839 19.3451 27.4145 19.4145Q27.3451 19.4839 27.2691 19.5462Q27.1932 19.6085 27.1116 19.6631Q27.0299 19.7177 26.9433 19.764Q26.8567 19.8103 26.766 19.8478Q26.6753 19.8854 26.5813 19.9139Q26.4873 19.9424 26.391 19.9616Q26.2947 19.9807 26.1969 19.9904Q26.0992 20 26.001 20L1.999 20Q1.9008 20 1.80306 19.9904Q1.70533 19.9807 1.60901 19.9616Q1.5127 19.9424 1.41872 19.9139Q1.32474 19.8854 1.23402 19.8478Q1.14329 19.8103 1.05668 19.764Q0.970069 19.7177 0.888415 19.6631Q0.806761 19.6085 0.730848 19.5462Q0.654935 19.4839 0.585494 19.4145Q0.516052 19.3451 0.453752 19.2692Q0.391452 19.1932 0.336892 19.1116Q0.282333 19.0299 0.236039 18.9433Q0.189746 18.8567 0.152165 18.766Q0.114584 18.6753 0.0860763 18.5813Q0.057569 18.4873 0.0384102 18.391Q0.0192515 18.2947 0.00962573 18.1969Q0 18.0992 0 18.001L0 1.999Q0 1.9008 0.00962573 1.80306Q0.0192515 1.70533 0.0384102 1.60901Q0.057569 1.5127 0.0860763 1.41872Q0.114584 1.32474 0.152165 1.23402Q0.189746 1.14329 0.236039 1.05668Q0.282333 0.970069 0.336892 0.888415Q0.391452 0.806761 0.453752 0.730848Q0.516052 0.654935 0.585494 0.585494Q0.654935 0.516052 0.730848 0.453752Q0.806761 0.391452 0.888415 0.336892Q0.970069 0.282333 1.05668 0.236039Q1.14329 0.189746 1.23402 0.152165Q1.32474 0.114584 1.41872 0.0860763Q1.5127 0.057569 1.60901 0.0384102Q1.70533 0.0192515 1.80306 0.00962573Q1.9008 0 1.999 0L1.999 0Z" id="Mask" fill="#FFFFFF" fill-rule="evenodd" stroke="none" />
    <g clip-path="url(#mask_1)">
      <path d="M0 1.33333L0 0L28 0L28 1.33333L0 1.33333ZM0 4L0 2.66667L28 2.66667L28 4L0 4ZM0 6.66667L0 5.33333L28 5.33333L28 6.66667L0 6.66667ZM0 9.33333L0 8L28 8L28 9.33333L0 9.33333ZM0 12L0 10.6667L28 10.6667L28 12L0 12ZM0 14.6667L0 13.3333L28 13.3333L28 14.6667L0 14.6667ZM0 17.3333L0 16L28 16L28 17.3333L0 17.3333ZM0 20L0 18.6667L28 18.6667L28 20L0 20Z" id="Rectangle-511" fill="#D02F44" fill-rule="evenodd" stroke="none" />
      <path d="M0 0L12 0L12 9.33333L0 9.33333L0 0Z" id="Rectangle-511" fill="#46467F" fill-rule="evenodd" stroke="none" />
      <path d="M2.66667 2C2.66667 2.36819 2.36819 2.66667 2 2.66667C1.63181 2.66667 1.33333 2.36819 1.33333 2C1.33333 1.63181 1.63181 1.33333 2 1.33333C2.36819 1.33333 2.66667 1.63181 2.66667 2ZM5.33333 2C5.33333 2.36819 5.03486 2.66667 4.66667 2.66667C4.29848 2.66667 4 2.36819 4 2C4 1.63181 4.29848 1.33333 4.66667 1.33333C5.03486 1.33333 5.33333 1.63181 5.33333 2ZM8 2C8 2.36819 7.70152 2.66667 7.33333 2.66667C6.96514 2.66667 6.66667 2.36819 6.66667 2C6.66667 1.63181 6.96514 1.33333 7.33333 1.33333C7.70152 1.33333 8 1.63181 8 2ZM10.6667 2C10.6667 2.36819 10.3682 2.66667 10 2.66667C9.63181 2.66667 9.33333 2.36819 9.33333 2C9.33333 1.63181 9.63181 1.33333 10 1.33333C10.3682 1.33333 10.6667 1.63181 10.6667 2ZM4 3.33333C4 3.70152 3.70152 4 3.33333 4C2.96514 4 2.66667 3.70152 2.66667 3.33333C2.66667 2.96514 2.96514 2.66667 3.33333 2.66667C3.70152 2.66667 4 2.96514 4 3.33333ZM6.66667 3.33333C6.66667 3.70152 6.36819 4 6 4C5.63181 4 5.33333 3.70152 5.33333 3.33333C5.33333 2.96514 5.63181 2.66667 6 2.66667C6.36819 2.66667 6.66667 2.96514 6.66667 3.33333ZM9.33333 3.33333C9.33333 3.70152 9.03486 4 8.66667 4C8.29848 4 8 3.70152 8 3.33333C8 2.96514 8.29848 2.66667 8.66667 2.66667C9.03486 2.66667 9.33333 2.96514 9.33333 3.33333ZM2.66667 4.66667C2.66667 5.03486 2.36819 5.33333 2 5.33333C1.63181 5.33333 1.33333 5.03486 1.33333 4.66667C1.33333 4.29848 1.63181 4 2 4C2.36819 4 2.66667 4.29848 2.66667 4.66667ZM5.33333 4.66667C5.33333 5.03486 5.03486 5.33333 4.66667 5.33333C4.29848 5.33333 4 5.03486 4 4.66667C4 4.29848 4.29848 4 4.66667 4C5.03486 4 5.33333 4.29848 5.33333 4.66667ZM8 4.66667C8 5.03486 7.70152 5.33333 7.33333 5.33333C6.96514 5.33333 6.66667 5.03486 6.66667 4.66667C6.66667 4.29848 6.96514 4 7.33333 4C7.70152 4 8 4.29848 8 4.66667ZM10.6667 4.66667C10.6667 5.03486 10.3682 5.33333 10 5.33333C9.63181 5.33333 9.33333 5.03486 9.33333 4.66667C9.33333 4.29848 9.63181 4 10 4C10.3682 4 10.6667 4.29848 10.6667 4.66667ZM4 6C4 6.36819 3.70152 6.66667 3.33333 6.66667C2.96514 6.66667 2.66667 6.36819 2.66667 6C2.66667 5.63181 2.96514 5.33333 3.33333 5.33333C3.70152 5.33333 4 5.63181 4 6ZM6.66667 6C6.66667 6.36819 6.36819 6.66667 6 6.66667C5.63181 6.66667 5.33333 6.36819 5.33333 6C5.33333 5.63181 5.63181 5.33333 6 5.33333C6.36819 5.33333 6.66667 5.63181 6.66667 6ZM9.33333 6C9.33333 6.36819 9.03486 6.66667 8.66667 6.66667C8.29848 6.66667 8 6.36819 8 6C8 5.63181 8.29848 5.33333 8.66667 5.33333C9.03486 5.33333 9.33333 5.63181 9.33333 6ZM2.66667 7.33333C2.66667 7.70152 2.36819 8 2 8C1.63181 8 1.33333 7.70152 1.33333 7.33333C1.33333 6.96514 1.63181 6.66667 2 6.66667C2.36819 6.66667 2.66667 6.96514 2.66667 7.33333ZM5.33333 7.33333C5.33333 7.70152 5.03486 8 4.66667 8C4.29848 8 4 7.70152 4 7.33333C4 6.96514 4.29848 6.66667 4.66667 6.66667C5.03486 6.66667 5.33333 6.96514 5.33333 7.33333ZM8 7.33333C8 7.70152 7.70152 8 7.33333 8C6.96514 8 6.66667 7.70152 6.66667 7.33333C6.66667 6.96514 6.96514 6.66667 7.33333 6.66667C7.70152 6.66667 8 6.96514 8 7.33333ZM10.6667 7.33333C10.6667 7.70152 10.3682 8 10 8C9.63181 8 9.33333 7.70152 9.33333 7.33333C9.33333 6.96514 9.63181 6.66667 10 6.66667C10.3682 6.66667 10.6667 6.96514 10.6667 7.33333Z" id="Oval-43" fill="url(#gradient_1)" fill-rule="evenodd" stroke="none" filter="url(#filter_1)" />
    </g>
  </g>
</svg>